# xmcd
#
# Track frame offsets:
#	150
#	2582
#	36216
#	62353
#	89281
#	113970
#	136537
#
# Disc length: 2262 seconds
#
# Revision: 2
# Processed by: cddbd v1.5.2PL0 Copyright (c) Steve Scherf et al.
# Submitted via: audiograbber 1.83.01
#
DISCID=4908d407
DTITLE=Various Artist - X-Mix Urban Series Vol.8
DYEAR=1995
DGENRE=Remix
TTITLE0=Speech - The Joke
TTITLE1=Various Artist - Armand's Buddha Baboons Continuous Mega Mix
TTITLE2=Bone Thugs-N-Harmony - 1st Of Tha Month
TTITLE3=Das Efx - Real Hip Hop
TTITLE4=Mary J. Blige - I Love You
TTITLE5=Supercat - Girlstown
TTITLE6=Kwame - Ownlee U
EXTD=
EXTT0=
EXTT1=
EXTT2=
EXTT3=
EXTT4=
EXTT5=
EXTT6=
PLAYORDER=
